# xmcd
#
# Track frame offsets: 
#        150
#        25016
#        47415
#        67204
#        86961
#        114672
#        134224
#        162300
#        188117
#        209342
#
# Disc length: 3071 seconds
#
# Revision: 0
# Processed by: cddbd v1.5.2PL0 Copyright (c) Steve Scherf et al.
# Submitted via: ExactAudioCopy v0.99pb4
#
DISCID=950bfd0a
DTITLE=Dave Steffen Band - Find A Groove
DYEAR=2008
DGENRE=Blues/Rock
TTITLE0=Rock River 
TTITLE1=Soul to Soul 
TTITLE2=Sweet Girl 
TTITLE3=Find A Groove 
TTITLE4=Lazy Day Sunday Morning 
TTITLE5=Wisconsin Blues 
TTITLE6=Lost Soul 
TTITLE7=Dawn 
TTITLE8=Surf Song 
TTITLE9=Seaside Lady 
EXTD=
EXTT0=
EXTT1=
EXTT2=
EXTT3=
EXTT4=
EXTT5=
EXTT6=
EXTT7=
EXTT8=
EXTT9=
PLAYORDER=
